<svg id="visual" viewBox="0 0 40 40" width="40" height="40" xmlns="http://www.w3.org/2000/svg" xmlns:xlink="http://www.w3.org/1999/xlink" version="1.1"><path d="M0 11L1.3 10.3C2.7 9.7 5.3 8.3 8 8.8C10.7 9.3 13.3 11.7 16 11.7C18.7 11.7 21.3 9.3 24 8.8C26.7 8.3 29.3 9.7 32 8.8C34.7 8 37.3 5 38.7 3.5L40 2L40 0L38.7 0C37.3 0 34.7 0 32 0C29.3 0 26.7 0 24 0C21.3 0 18.7 0 16 0C13.3 0 10.7 0 8 0C5.3 0 2.7 0 1.3 0L0 0Z" fill="#f5f5f4"></path><path d="M0 17L1.3 17.3C2.7 17.7 5.3 18.3 8 19.7C10.7 21 13.3 23 16 24.2C18.7 25.3 21.3 25.7 24 24C26.7 22.3 29.3 18.7 32 15.5C34.7 12.3 37.3 9.7 38.7 8.3L40 7L40 0L38.7 1.5C37.3 3 34.7 6 32 6.8C29.3 7.7 26.7 6.3 24 6.8C21.3 7.3 18.7 9.7 16 9.7C13.3 9.7 10.7 7.3 8 6.8C5.3 6.3 2.7 7.7 1.3 8.3L0 9Z" fill="#f3ceb2"></path><path d="M0 19L1.3 20.3C2.7 21.7 5.3 24.3 8 25.7C10.7 27 13.3 27 16 27.3C18.7 27.7 21.3 28.3 24 27.2C26.7 26 29.3 23 32 20.2C34.7 17.3 37.3 14.7 38.7 13.3L40 12L40 5L38.7 6.3C37.3 7.7 34.7 10.3 32 13.5C29.3 16.7 26.7 20.3 24 22C21.3 23.7 18.7 23.3 16 22.2C13.3 21 10.7 19 8 17.7C5.3 16.3 2.7 15.7 1.3 15.3L0 15Z" fill="#ff9a9d"></path><path d="M0 34L1.3 34.5C2.7 35 5.3 36 8 37.2C10.7 38.3 13.3 39.7 16 38.5C18.7 37.3 21.3 33.7 24 32.2C26.7 30.7 29.3 31.3 32 31.7C34.7 32 37.3 32 38.7 32L40 32L40 10L38.7 11.3C37.3 12.7 34.7 15.3 32 18.2C29.3 21 26.7 24 24 25.2C21.3 26.3 18.7 25.7 16 25.3C13.3 25 10.7 25 8 23.7C5.3 22.3 2.7 19.7 1.3 18.3L0 17Z" fill="#e36ec5"></path><path d="M0 41L1.3 41C2.7 41 5.3 41 8 41C10.7 41 13.3 41 16 41C18.7 41 21.3 41 24 41C26.7 41 29.3 41 32 41C34.7 41 37.3 41 38.7 41L40 41L40 30L38.7 30C37.3 30 34.7 30 32 29.7C29.3 29.3 26.7 28.7 24 30.2C21.3 31.7 18.7 35.3 16 36.5C13.3 37.7 10.7 36.3 8 35.2C5.3 34 2.7 33 1.3 32.5L0 32Z" fill="#3772ff"></path></svg>